<svg xmlns="http://www.w3.org/2000/svg" width="2297" height="318" viewBox="0 0 2297 318"><g><g opacity=".41"><path fill="#91cfff" d="M2254.718 151.405C2217.19 84.66 2163.235 33.127 2097 11.999c-58.417-18.634-120.934-14.03-173 6-108.856 41.878-111.231 128.61-204.844 170-112.309 49.658-234.418-37.214-356-30-116.948 6.94-169.667 55.173-286.799 57.48-111.948 2.206-168.257-39.056-280.2-41.48-141.036-3.052-197.182 58.38-338 50-41.28-2.455-149.948-37.285-245-19-79.581 15.31-150.404 55.422-213 113H2296.99c.331-58.799-13.822-115.994-42.273-166.594z"/></g></g></svg>